PathFileType	4	(X/Y/Z)	21_coords_data.trc
DataRate	CameraRate	NumFrames	NumMarkers	Units	OrigDataRate	OrigDataStartFrame	OrigNumFrames
30.0	30.0	7	21	m	30.0	10	65
Frame#	Time	THUMB_TIP	THUMB_IP	THUMB_MCP	THUMB_CMC	INDEX_TIP	INDEX_DIP	INDEX_PIP	INDEX_MCP	MIDDLE_TIP	MIDDLE_DIP	MIDDLE_PIP	MIDDLE_MCP	RING_TIP	RING_DIP	RING_PIP	RING_MCP	PINKY_TIP	PINKY_DIP	PINKY_PIP	PINKY_MCP	WRIST
X1	Y1	Z1	X2	Y2	Z2	X3	Y3	Z3	X4	Y4	Z4	X5	Y5	Z5	X6	Y6	Z6	X7	Y7	Z7	X8	Y8	Z8	X9	Y9	Z9	X10	Y10	Z10	X11	Y11	Z11	X12	Y12	Z12	X13	Y13	Z13	X14	Y14	Z14	X15	Y15	Z15	X16	Y16	Z16	X17	Y17	Z17	X18	Y18	Z18	X19	Y19	Z19	X20	Y20	Z20	X21	Y21	Z21
8	0.2999999999999987	0.5461683115733906	-0.0038231014632380544	-0.09995954131450258	0.5301255880608666	-0.00526516475201344	-0.1163470815744646	0.49973941531401844	-0.010880709547165357	-0.11260994865572305	0.47828237113775873	-0.023911447045085965	-0.075736040055219	0.5017774744916608	-0.0001059406749970293	-0.10560025496551351	0.5167838565489378	-0.0022791061974137827	-0.11550408499046938	0.5290619371928695	0.016717733210725116	-0.12647580596771285	0.49803750677469316	0.034169078849182855	-0.10309694058389196	0.5038814560464	-0.017563160467395034	-0.0998220043027584	0.5199508854208719	-0.009258786848179934	-0.1007224588387281	0.5387356320661094	0.01133068648144675	-0.1092439863709746	0.509771144663206	0.034719216572082656	-0.08454210282565616	0.5099799329822785	-0.012840984617526918	-0.08354615690271555	0.5264841889532319	-0.007825567684089596	-0.08878592100322985	0.5458252132612857	0.00693606119156609	-0.0940962007183373	0.5214143823502626	0.027999175602221094	-0.06969994322754369	0.518731563551693	-0.019224454339421992	-0.07603479684388997	0.5336687822728843	-0.019728278804657218	-0.08437899589374048	0.5488745838081914	-0.005285172305008579	-0.0833828566922939	0.52747806693145	0.010940621949904306	-0.05930390079008424	0.4622830810018608	-0.023011742144276925	-0.051989820119430985
9	0.33333333333333187	0.5462388189036739	-0.003980556429647786	-0.09996618427443232	0.5301829323169263	-0.005418691071658266	-0.11634117357717533	0.4997832456194936	-0.010956379589885379	-0.11259777210618255	0.4782656089177342	-0.023949369703038847	-0.07574585874078743	0.5017833370898592	-0.00015056933752488622	-0.10558895574092086	0.5167861389418363	-0.00233972434583396	-0.11549468827011378	0.5291221896958226	0.0166091467290449	-0.12648431837229163	0.4981234096385113	0.03410699908650783	-0.10310618987929893	0.5038950835392799	-0.01761172108023512	-0.09990008633139297	0.5199914013329099	-0.009350621430471273	-0.10071420306942458	0.5388153708599002	0.011200767389989652	-0.1092411098237624	0.5098756298757101	0.034629564299773596	-0.08454838238979734	0.5099817744633964	-0.012874533940636201	-0.08347484839181174	0.5265008718377016	-0.007971749336550427	-0.08877410542126163	0.5458742431002221	0.006751386868877218	-0.0940733247223442	0.5215080098432583	0.027890914095260233	-0.06969858575938809	0.5187027360774606	-0.01928185191087073	-0.0759596517117474	0.5336270185822627	-0.019861343986608215	-0.08432206647370549	0.548891919438434	-0.005478944637100636	-0.08335180372447498	0.5275380951756291	0.010828136909205366	-0.05928986839509265	0.4622830810018608	-0.023011742144276925	-0.051989820119430985
10	0.3666666666666651	0.5462794876715646	-0.004108862641625688	-0.09997920904808472	0.5302097914441148	-0.0055323660335779845	-0.11634192585338898	0.4997969470119443	-0.010998556891776423	-0.11260031509779894	0.4782553962516869	-0.02396265682590859	-0.0757521984058826	0.5017911949562777	-0.0001481575691907322	-0.10557453509482928	0.5167883301028592	-0.0023669956036916906	-0.11548224397084206	0.5291811433817671	0.01653346784004517	-0.12649135354637508	0.4982008137903935	0.0340568404052608	-0.10310788318052672	0.503923960637646	-0.017711493757697316	-0.09991143862771534	0.5200084225080968	-0.009426758928258505	-0.10071968063596626	0.5388776096474124	0.01108864099326412	-0.10923329871299314	0.5099686092873325	0.03455648166279657	-0.08454163871431453	0.5099932034313375	-0.01293172288534905	-0.08340811535844717	0.5265116535570258	-0.008095256427802733	-0.08876996183612507	0.5459051441924196	0.006606516941673135	-0.09405487997810802	0.5215795429421277	0.027809061866927443	-0.06969429610775768	0.5186763527853491	-0.019384805232469327	-0.07593620593851896	0.5335992576419458	-0.019965187876920254	-0.08430101715139038	0.5489011915527879	-0.005622342026099569	-0.08332859209627552	0.5275868621078822	0.010738609488020301	-0.05926820812455469	0.4622830810018608	-0.023011742144276925	-0.051989820119430985
11	0.39999999999999825	0.5463140059729982	-0.004213313165696397	-0.10001321212251796	0.5302353331302843	-0.005615106297191308	-0.11636898344745006	0.49981894578839026	-0.011039364517468231	-0.11259528448918205	0.4782257058996543	-0.02398573064280718	-0.0757711946123612	0.5017937986070362	-0.00020036698722947222	-0.10557167008801105	0.5167820421978518	-0.0024258084886998876	-0.11549134569691621	0.5291976608782927	0.016452925520426764	-0.12651203750798407	0.4982595407667768	0.03402118752249983	-0.10310637605200429	0.503869086772245	-0.01768034750304004	-0.09987598481531484	0.5199999338842431	-0.009490031561382506	-0.10072126360079009	0.5389080167427207	0.010985403432217877	-0.10924479071342313	0.5100456516351439	0.0344946540884713	-0.08453797110873934	0.5099634639864754	-0.012898365698504444	-0.08333564766098267	0.5264970722241962	-0.00821484999927502	-0.08878582924847528	0.5459138146498694	0.006458197575287761	-0.0940652011286976	0.5216470410318697	0.027726936757413667	-0.06970364810399393	0.5186217854766777	-0.01943870819000837	-0.07595196615407451	0.5335503533671313	-0.020052199796979586	-0.08430430048576237	0.5488984836290309	-0.005758398656284691	-0.08333777815594928	0.5276326513797517	0.01065014776291795	-0.059266894620972954	0.462283081001861	-0.023011742144276925	-0.051989820119430985
12	0.43333333333333146	0.5463313576649595	-0.004275575812863974	-0.10008131864153336	0.5302356103933924	-0.00566982826757223	-0.1164209324638481	0.499813604316528	-0.011023922985501589	-0.11259271930224529	0.4781980051525161	-0.023992231959385935	-0.07578947440266287	0.5017777768301129	-0.0002528527668603786	-0.10556374645827665	0.5167503160371711	-0.0024585575332464193	-0.11551150681810873	0.5291959908982261	0.016402786853417894	-0.1265280715358667	0.4982999102294876	0.03400692751349199	-0.10309385456727271	0.503818882901852	-0.017675644561087278	-0.09987615283446605	0.5199730399505214	-0.00953374285335118	-0.10074370492424817	0.5389163331342838	0.010910908402830932	-0.10926294364417605	0.5101017692263883	0.034452090474940134	-0.0845307465229011	0.5099205369272433	-0.0128921404612794	-0.08333451707803485	0.5264659877838811	-0.008282025322000175	-0.0888112765535981	0.5459064034750314	0.006361235584963931	-0.09408622932740185	0.5216890618958215	0.0276740956293674	-0.06971404851477148	0.5185495880513098	-0.019546391239575578	-0.07600460841086099	0.5334896456874316	-0.020121971192364585	-0.0843390781328831	0.5488769070252217	-0.005870292265359733	-0.08337271625236636	0.5276647746945918	0.010583683961707169	-0.05928546735783785	0.4622830810018608	-0.023011742144276925	-0.051989820119430985
13	0.4666666666666647	0.5463084175732543	-0.004344220834396673	-0.10016120537040701	0.5301950031831801	-0.005725040417346672	-0.11648453879140563	0.4997671255631211	-0.011016753351975273	-0.1126164594545509	0.4781657437372324	-0.024001423699364532	-0.0758106360133915	0.5017798896292307	-0.00029574654451192117	-0.10560227877004885	0.5167388340022003	-0.0024783344621628345	-0.1155755577307579	0.5291906552915815	0.016388201142336745	-0.1265762765191582	0.4983301224691298	0.03398888779924292	-0.10309267719708265	0.5037919786395051	-0.01771694112957667	-0.09991578642078403	0.5199429862894258	-0.009569958667031808	-0.1007942103771911	0.5389208525664078	0.010845673993813087	-0.10930608940772424	0.5101521000669623	0.03440573790017565	-0.08453856653292369	0.5097896341621271	-0.012811933911467843	-0.08362454361935773	0.5264488619139955	-0.008343315590777944	-0.08886873860194289	0.5459069701555879	0.006280119600359901	-0.09413344617872876	0.5217320269047039	0.027615112865158165	-0.06973854885966707	0.518522210107013	-0.019543025003019965	-0.07604859822774124	0.5334580795787229	-0.020169969539373667	-0.08438686805261386	0.5488657908451715	-0.005939955030287214	-0.08342710787374435	0.5276940086074302	0.010521495802145009	-0.05930948518059559	0.4622830810018609	-0.023011742144276925	-0.051989820119430985
14	0.4999999999999978	0.5462838435546844	-0.004385612968954344	-0.10024955206099401	0.530166912214691	-0.005740294655419587	-0.1165716034550528	0.49973858136839644	-0.010974922996673464	-0.1126301128693254	0.47813297354724427	-0.023978367313824633	-0.07583339906809955	0.5017580615943577	-0.0003112385502480608	-0.1056182631380857	0.5167034574965096	-0.0024953115084942468	-0.11561150918934426	0.5291530776144217	0.016380074915136933	-0.12659952899631033	0.4983430409073746	0.034003781987340775	-0.10306694135398825	0.5036969563245602	-0.017672347899442054	-0.09979840619345193	0.5198720131214305	-0.009590950943379584	-0.1008272700603281	0.538875673460153	0.01080527019494315	-0.10932812925261637	0.5101737122001496	0.03440027020005654	-0.08451641194832699	0.5096901176539039	-0.012878142215266397	-0.08381068260886665	0.5263819978913973	-0.008344299338742478	-0.08889255262965445	0.5458661035379347	0.006244419536343471	-0.09415742563270746	0.5217441779964551	0.027603451724660055	-0.06973110200122795	0.518448630109173	-0.019516109401530146	-0.07608545689418711	0.5333844637195426	-0.020169849012823815	-0.08442173297430677	0.5488290902778763	-0.005979429744393028	-0.08346908904304567	0.5277102982647273	0.010489549471111248	-0.05931018181393766	0.4622830810018608	-0.023011742144276925	-0.051989820119430985
